<svg width="32" height="33" viewBox="0 0 32 33" fill="none" xmlns="http://www.w3.org/2000/svg">
<g id="material-symbols-light:blood-pressure-outline-sharp">
<path id="Vector" d="M4 12.6534V9.32008C4 8.70675 4.20578 8.19475 4.61733 7.78408C5.028 7.37253 5.54 7.16675 6.15333 7.16675H25.8467C26.46 7.16675 26.972 7.37253 27.3827 7.78408C27.7942 8.19475 28 8.70675 28 9.32008V16.6534H26.6667V9.32008C26.6667 9.11564 26.5813 8.92764 26.4107 8.75608C26.2391 8.58541 26.0511 8.50008 25.8467 8.50008H6.15333C5.94889 8.50008 5.76089 8.58541 5.58933 8.75608C5.41867 8.92764 5.33333 9.11564 5.33333 9.32008V12.6534H4ZM14.592 25.8334H6.15333C5.54 25.8334 5.028 25.6281 4.61733 25.2174C4.20578 24.8059 4 24.2934 4 23.6801V20.3467H5.33333V23.6801C5.33333 23.8845 5.41867 24.0725 5.58933 24.2441C5.76089 24.4147 5.94889 24.5001 6.15333 24.5001H14.2533C14.3031 24.7445 14.352 24.9734 14.4 25.1867C14.448 25.4001 14.512 25.6156 14.592 25.8334ZM22.6667 28.5001C21.1813 28.5001 19.9209 27.9827 18.8853 26.9481C17.8498 25.9134 17.3324 24.653 17.3333 23.1667C17.3333 21.6814 17.8507 20.421 18.8853 19.3854C19.92 18.3499 21.1804 17.8325 22.6667 17.8334C24.152 17.8334 25.4124 18.3507 26.448 19.3854C27.4836 20.4201 28.0009 21.6805 28 23.1667C28 24.6521 27.4827 25.9125 26.448 26.9481C25.4133 27.9836 24.1529 28.501 22.6667 28.5001ZM22.9333 23.6281L25.5053 21.0561L24.7773 20.3281L22.204 22.9001L22.9333 23.6281ZM4 17.1667V15.8334H7.056L9.33333 20.3534L14.44 10.0641H14.8333L17.8947 16.1361L17.3213 16.5561C17.1347 16.6939 16.9627 16.8445 16.8053 17.0081L14.64 12.6801L9.49867 22.9614H9.11467L6.244 17.1667H4Z" fill="#18CC20"/>
</g>
</svg>
