<svg width="32" height="33" viewBox="0 0 32 33" fill="none" xmlns="http://www.w3.org/2000/svg">
<g id="Heartbeat">
<path id="Vector" d="M9 17.5H4C3.73478 17.5 3.48043 17.3946 3.29289 17.2071C3.10536 17.0196 3 16.7652 3 16.5C3 16.2348 3.10536 15.9804 3.29289 15.7929C3.48043 15.6054 3.73478 15.5 4 15.5H8.465L10.1675 12.945C10.2588 12.8078 10.3825 12.6953 10.5278 12.6175C10.673 12.5397 10.8352 12.499 11 12.499C11.1648 12.499 11.327 12.5397 11.4722 12.6175C11.6175 12.6953 11.7412 12.8078 11.8325 12.945L15 17.695L16.1675 15.945C16.2589 15.808 16.3827 15.6957 16.5279 15.6181C16.6732 15.5405 16.8353 15.4999 17 15.5H20C20.2652 15.5 20.5196 15.6054 20.7071 15.7929C20.8946 15.9804 21 16.2348 21 16.5C21 16.7652 20.8946 17.0196 20.7071 17.2071C20.5196 17.3946 20.2652 17.5 20 17.5H17.535L15.8325 20.055C15.7412 20.1922 15.6175 20.3047 15.4722 20.3825C15.327 20.4603 15.1648 20.501 15 20.501C14.8352 20.501 14.673 20.4603 14.5278 20.3825C14.3825 20.3047 14.2588 20.1922 14.1675 20.055L11 15.3025L9.8325 17.0525C9.74139 17.1899 9.6177 17.3027 9.47246 17.3808C9.32721 17.4589 9.1649 17.4998 9 17.5ZM22.25 4.5C19.6688 4.5 17.4088 5.61 16 7.48625C14.5912 5.61 12.3313 4.5 9.75 4.5C7.69528 4.50232 5.72539 5.31958 4.27248 6.77248C2.81958 8.22539 2.00232 10.1953 2 12.25C2 12.3437 2 12.4375 2 12.5312C2.00829 12.7965 2.12159 13.0475 2.31499 13.2292C2.50839 13.4109 2.76603 13.5083 3.03125 13.5C3.29647 13.4917 3.54753 13.3784 3.7292 13.185C3.91088 12.9916 4.00829 12.734 4 12.4687C4 12.3962 4 12.3225 4 12.25C4.00198 10.7256 4.60842 9.26423 5.68633 8.18633C6.76423 7.10842 8.22561 6.50198 9.75 6.5C12.1812 6.5 14.2225 7.795 15.075 9.875C15.1503 10.0584 15.2785 10.2153 15.4432 10.3257C15.6079 10.4361 15.8017 10.495 16 10.495C16.1983 10.495 16.3921 10.4361 16.5568 10.3257C16.7215 10.2153 16.8497 10.0584 16.925 9.875C17.7775 7.79125 19.8188 6.5 22.25 6.5C23.7744 6.50198 25.2358 7.10842 26.3137 8.18633C27.3916 9.26423 27.998 10.7256 28 12.25C28 18.9512 18.28 25.0187 16 26.35C14.6462 25.5612 10.6712 23.1 7.665 19.8237C7.48565 19.6282 7.23594 19.5118 6.97081 19.5003C6.70568 19.4888 6.44685 19.5831 6.25125 19.7625C6.05565 19.9419 5.93931 20.1916 5.92783 20.4567C5.91634 20.7218 6.01065 20.9807 6.19 21.1762C10.0863 25.4262 15.3062 28.2612 15.5262 28.38C15.6719 28.4583 15.8346 28.4993 16 28.4993C16.1654 28.4993 16.3281 28.4583 16.4737 28.38C17.0262 28.0825 30 21 30 12.25C29.9977 10.1953 29.1804 8.22539 27.7275 6.77248C26.2746 5.31958 24.3047 4.50232 22.25 4.5Z" fill="#145AE2"/>
</g>
</svg>
