<svg width="32" height="33" viewBox="0 0 32 33" fill="none" xmlns="http://www.w3.org/2000/svg">
<path d="M12.2134 14.9937C12.0801 14.9803 11.9201 14.9803 11.7734 14.9937C8.60008 14.887 6.08008 12.287 6.08008 9.08699C6.08008 5.82033 8.72008 3.16699 12.0001 3.16699C15.2667 3.16699 17.9201 5.82033 17.9201 9.08699C17.9067 12.287 15.3867 14.887 12.2134 14.9937Z" fill="#145AE2" stroke="#145AE2" stroke-width="1.5" stroke-linecap="round" stroke-linejoin="round"/>
<path d="M21.8801 5.83301C24.4668 5.83301 26.5468 7.92634 26.5468 10.4997C26.5468 13.0197 24.5468 15.073 22.0535 15.1663C21.9468 15.153 21.8268 15.153 21.7068 15.1663" stroke="#145AE2" stroke-width="1.5" stroke-linecap="round" stroke-linejoin="round"/>
<path d="M5.54671 19.913C2.32004 22.073 2.32004 25.593 5.54671 27.7397C9.21338 30.193 15.2267 30.193 18.8934 27.7397C22.12 25.5797 22.12 22.0597 18.8934 19.913C15.24 17.473 9.22671 17.473 5.54671 19.913Z" stroke="#145AE2" stroke-width="1.5" stroke-linecap="round" stroke-linejoin="round"/>
<path d="M24.4534 27.167C25.4134 26.967 26.32 26.5803 27.0667 26.007C29.1467 24.447 29.1467 21.8737 27.0667 20.3137C26.3334 19.7537 25.44 19.3803 24.4934 19.167" stroke="#145AE2" stroke-width="1.5" stroke-linecap="round" stroke-linejoin="round"/>
</svg>
