<svg width="25" height="24" viewBox="0 0 25 24" fill="none" xmlns="http://www.w3.org/2000/svg">
<g id="vuesax/linear/receipt-edit">
<path id="Vector" d="M21 11.3V7.04001C21 3.01001 20.06 2 16.28 2H8.72C4.94 2 4 3.01001 4 7.04001V18.3C4 20.96 5.46001 21.59 7.23001 19.69L7.23999 19.68C8.05999 18.81 9.30999 18.88 10.02 19.83L11.03 21.18" stroke="#145AE2" stroke-width="1.5" stroke-linecap="round" stroke-linejoin="round"/>
<path id="Vector_2" d="M8.5 7H16.5" stroke="#145AE2" stroke-width="1.5" stroke-linecap="round" stroke-linejoin="round"/>
<path id="Vector_3" d="M9.5 11H15.5" stroke="#145AE2" stroke-width="1.5" stroke-linecap="round" stroke-linejoin="round"/>
<g id="Group">
<path id="Vector_4" d="M18.711 14.7703L15.171 18.3103C15.031 18.4503 14.901 18.7103 14.871 18.9003L14.681 20.2503C14.611 20.7403 14.951 21.0803 15.441 21.0103L16.791 20.8203C16.981 20.7903 17.251 20.6603 17.381 20.5203L20.921 16.9803C21.531 16.3703 21.821 15.6603 20.921 14.7603C20.031 13.8703 19.321 14.1603 18.711 14.7703Z" stroke="#145AE2" stroke-width="1.5" stroke-miterlimit="10" stroke-linecap="round" stroke-linejoin="round"/>
<path id="Vector_5" d="M18.1992 15.2803C18.4992 16.3603 19.3392 17.2003 20.4192 17.5003" stroke="#145AE2" stroke-width="1.5" stroke-miterlimit="10" stroke-linecap="round" stroke-linejoin="round"/>
</g>
</g>
</svg>
