<svg width="12" height="12" viewBox="0 0 12 12" fill="none" xmlns="http://www.w3.org/2000/svg">
<g id="vuesax/linear/share">
<g id="share">
<path id="Vector" d="M8.48047 3.08496C9.48047 3.77996 10.1705 4.88496 10.3105 6.15996" stroke="#145AE2" stroke-width="1.5" stroke-linecap="round" stroke-linejoin="round"/>
<path id="Vector_2" d="M1.74414 6.18535C1.87414 4.91535 2.55414 3.81035 3.54414 3.11035" stroke="#145AE2" stroke-width="1.5" stroke-linecap="round" stroke-linejoin="round"/>
<path id="Vector_3" d="M4.0957 10.4697C4.6757 10.7647 5.3357 10.9297 6.0307 10.9297C6.7007 10.9297 7.3307 10.7797 7.8957 10.5047" stroke="#145AE2" stroke-width="1.5" stroke-linecap="round" stroke-linejoin="round"/>
<path id="Vector_4" d="M6.03063 3.85031C6.7983 3.85031 7.42063 3.22799 7.42063 2.46031C7.42063 1.69264 6.7983 1.07031 6.03063 1.07031C5.26295 1.07031 4.64062 1.69264 4.64062 2.46031C4.64062 3.22799 5.26295 3.85031 6.03063 3.85031Z" stroke="#145AE2" stroke-width="1.5" stroke-linecap="round" stroke-linejoin="round"/>
<path id="Vector_5" d="M2.41539 9.95969C3.18307 9.95969 3.80539 9.33736 3.80539 8.56969C3.80539 7.80201 3.18307 7.17969 2.41539 7.17969C1.64771 7.17969 1.02539 7.80201 1.02539 8.56969C1.02539 9.33736 1.64771 9.95969 2.41539 9.95969Z" stroke="#145AE2" stroke-width="1.5" stroke-linecap="round" stroke-linejoin="round"/>
<path id="Vector_6" d="M9.58531 9.95969C10.353 9.95969 10.9753 9.33736 10.9753 8.56969C10.9753 7.80201 10.353 7.17969 9.58531 7.17969C8.81764 7.17969 8.19531 7.80201 8.19531 8.56969C8.19531 9.33736 8.81764 9.95969 9.58531 9.95969Z" stroke="#145AE2" stroke-width="1.5" stroke-linecap="round" stroke-linejoin="round"/>
</g>
</g>
</svg>
