<svg width="25" height="24" viewBox="0 0 25 24" fill="none" xmlns="http://www.w3.org/2000/svg">
<g id="vuesax/linear/user-tick">
<g id="user-tick">
<path id="Vector" d="M12.5 12C15.2614 12 17.5 9.76142 17.5 7C17.5 4.23858 15.2614 2 12.5 2C9.73858 2 7.5 4.23858 7.5 7C7.5 9.76142 9.73858 12 12.5 12Z" stroke="#145AE2" stroke-width="1.5" stroke-linecap="round" stroke-linejoin="round"/>
<path id="Vector_2" d="M3.91016 22C3.91016 18.13 7.76015 15 12.5002 15C13.4602 15 14.3902 15.13 15.2602 15.37" stroke="#145AE2" stroke-width="1.5" stroke-linecap="round" stroke-linejoin="round"/>
<g id="Group">
<path id="Vector_3" d="M22.5 18C22.5 18.75 22.29 19.46 21.92 20.06C21.71 20.42 21.44 20.74 21.13 21C20.43 21.63 19.51 22 18.5 22C17.04 22 15.77 21.22 15.08 20.06C14.71 19.46 14.5 18.75 14.5 18C14.5 16.74 15.08 15.61 16 14.88C16.69 14.33 17.56 14 18.5 14C20.71 14 22.5 15.79 22.5 18Z" stroke="#145AE2" stroke-width="1.5" stroke-miterlimit="10" stroke-linecap="round" stroke-linejoin="round"/>
<path id="Vector_4" d="M16.9414 18L17.9314 18.99L20.0614 17.02" stroke="#145AE2" stroke-width="1.5" stroke-linecap="round" stroke-linejoin="round"/>
</g>
</g>
</g>
</svg>
