<svg width="25" height="24" viewBox="0 0 25 24" fill="none" xmlns="http://www.w3.org/2000/svg">
<g id="vuesax/linear/user-search">
<g id="user-search">
<path id="Vector" d="M12.5 12C15.2614 12 17.5 9.76142 17.5 7C17.5 4.23858 15.2614 2 12.5 2C9.73858 2 7.5 4.23858 7.5 7C7.5 9.76142 9.73858 12 12.5 12Z" stroke="#145AE2" stroke-width="1.5" stroke-linecap="round" stroke-linejoin="round"/>
<path id="Vector_2" d="M3.91016 22C3.91016 18.13 7.76018 15 12.5002 15" stroke="#145AE2" stroke-width="1.5" stroke-linecap="round" stroke-linejoin="round"/>
<g id="Group">
<path id="Vector_3" d="M18.7 21.4C20.4673 21.4 21.9 19.9673 21.9 18.2C21.9 16.4327 20.4673 15 18.7 15C16.9327 15 15.5 16.4327 15.5 18.2C15.5 19.9673 16.9327 21.4 18.7 21.4Z" stroke="#145AE2" stroke-width="1.5" stroke-linecap="round" stroke-linejoin="round"/>
<path id="Vector_4" d="M22.5 22L21.5 21" stroke="#145AE2" stroke-width="1.5" stroke-linecap="round" stroke-linejoin="round"/>
</g>
</g>
</g>
</svg>
